<?xml version="1.0" standalone="no"?>
<!DOCTYPE svg PUBLIC "-//W3C//DTD SVG 20010904//EN"
 "http://www.w3.org/TR/2001/REC-SVG-20010904/DTD/svg10.dtd">
<svg version="1.0" xmlns="http://www.w3.org/2000/svg"
 width="240.000000pt" height="240.000000pt" viewBox="0 0 240.000000 240.000000"
 preserveAspectRatio="xMidYMid meet">
<g transform="translate(0.000000,240.000000) scale(0.100000,-0.100000)"
fill="#ffffff" stroke="none">
<path d="M1047 2276 c-55 -20 -103 -61 -134 -114 -24 -41 -28 -58 -28 -127 0
-105 28 -166 98 -210 47 -30 47 -30 42 -75 -3 -25 -12 -93 -20 -152 -11 -91
-17 -113 -40 -139 -14 -18 -38 -55 -52 -83 -14 -28 -36 -66 -50 -84 -13 -17
-37 -58 -53 -91 l-29 -58 -43 8 c-24 5 -101 6 -173 3 -97 -5 -156 -2 -233 10
-159 26 -174 10 -176 -191 -1 -92 -3 -88 122 -237 80 -94 163 -149 284 -188
109 -35 149 -38 493 -41 l261 -2 69 -48 c90 -60 132 -64 179 -13 29 30 41 35
117 45 46 6 227 14 402 18 l317 6 0 401 0 401 -21 -43 c-41 -82 -157 -160
-294 -197 -38 -10 -144 -20 -292 -27 -172 -9 -233 -15 -233 -24 0 -12 -24 -16
-205 -29 -116 -9 -241 -33 -295 -56 -64 -27 -104 -70 -97 -101 14 -53 140 -78
403 -78 106 0 166 -5 200 -15 128 -39 303 -67 458 -74 122 -4 160 -9 164 -20
6 -19 -307 -10 -398 12 -36 8 -85 18 -111 21 l-45 7 -23 -55 c-12 -30 -29 -60
-37 -67 -8 -6 -14 -27 -14 -46 0 -37 -23 -89 -41 -95 -30 -10 -73 8 -125 54
-31 27 -69 54 -83 60 -15 6 -160 14 -330 19 -337 9 -356 11 -456 47 -118 42
-159 75 -236 189 -96 144 -121 237 -76 284 21 23 26 24 204 26 112 2 229 -3
306 -12 136 -15 310 -56 364 -84 31 -15 42 -16 106 -4 40 7 115 15 167 18 174
11 179 14 60 41 -200 45 -325 99 -360 156 -35 58 -45 156 -31 297 24 244 52
343 135 471 45 69 115 134 181 168 119 60 326 99 474 89 148 -9 311 -75 383
-155 55 -61 124 -172 152 -247 15 -38 31 -79 36 -90 5 -12 9 81 9 242 1 198
-2 264 -11 269 -7 5 -42 8 -78 8 -71 0 -113 -17 -153 -59 l-23 -26 -56 26
c-30 14 -93 35 -139 46 -147 38 -395 15 -541 -49 l-43 -18 -53 37 c-78 55
-177 72 -255 45z"/>
<path d="M383 2070 c-18 -11 -35 -31 -39 -45 -7 -30 -4 -29 -40 -10 -48 25
-125 -1 -149 -51 -16 -34 -13 -98 6 -110 15 -9 10 -22 -11 -29 -28 -9 -50 -56
-50 -109 0 -67 38 -107 108 -114 45 -4 52 -8 52 -26 0 -31 35 -83 69 -100 73
-38 173 -27 222 25 32 35 41 93 24 162 -11 42 -10 47 5 47 10 0 34 -7 55 -16
43 -18 83 -8 122 28 34 31 29 45 -13 40 -27 -3 -55 4 -104 28 l-67 32 19 36
c32 65 15 155 -39 202 -28 25 -42 30 -86 30 -34 0 -63 -7 -84 -20z m154 -31
c28 -28 47 -91 38 -135 -3 -19 -18 -43 -35 -58 -36 -30 -38 -46 -7 -46 13 0
58 -18 100 -39 61 -31 72 -40 55 -44 -12 -3 -37 1 -56 9 -41 17 -61 18 -98 4
-26 -10 -26 -11 -8 -31 13 -14 20 -40 22 -88 4 -65 3 -68 -26 -93 -57 -48
-157 -44 -209 9 -23 22 -25 30 -19 80 l6 56 -26 -18 c-34 -22 -109 -16 -129
11 -25 34 -28 72 -8 112 15 31 25 39 60 46 40 9 59 26 30 26 -21 0 -46 32 -53
67 -9 43 28 83 78 85 43 1 63 -12 72 -48 9 -35 30 -25 34 17 1 19 8 45 15 58
26 52 117 63 164 20z"/>
<path d="M1528 1960 c-20 -3 -44 -13 -53 -20 -15 -13 -15 -15 3 -21 11 -4 45
-5 76 -2 46 5 56 9 56 24 0 11 -4 19 -9 19 -5 0 -15 2 -23 4 -7 2 -30 0 -50
-4z"/>
<path d="M1767 1869 c-21 -21 -37 -45 -35 -51 3 -9 44 -12 139 -13 74 -1 140
0 147 3 22 8 13 21 -25 38 -63 27 -167 64 -178 63 -5 0 -27 -18 -48 -40z"/>
<path d="M1453 1804 c-16 -7 -17 -24 -2 -24 6 0 17 -7 26 -15 19 -20 48 -15
47 8 -2 20 17 22 34 5 6 -6 15 -9 19 -5 13 14 -14 28 -63 32 -27 3 -55 2 -61
-1z"/>
<path d="M1800 1751 c0 -22 61 -51 117 -56 32 -3 66 -8 76 -11 31 -10 18 14
-15 26 -129 49 -178 60 -178 41z"/>
<path d="M1467 1728 c6 -10 35 -10 51 0 8 5 -1 8 -22 8 -19 -1 -32 -4 -29 -8z"/>
<path d="M1870 1670 c8 -5 24 -9 35 -9 l20 0 -20 9 c-11 5 -27 9 -35 9 -13 1
-13 0 0 -9z"/>
<path d="M1467 1609 c-26 -22 -35 -35 -28 -42 12 -12 41 8 41 28 0 7 10 20 23
28 12 9 17 16 12 16 -6 1 -28 -13 -48 -30z"/>
<path d="M1769 1593 c27 -53 -1 -69 -77 -45 -26 9 -64 12 -95 9 -29 -2 -62 -1
-74 4 -36 13 -27 -3 23 -45 l45 -38 70 7 c54 5 77 13 100 32 23 19 33 23 42
14 6 -6 15 -11 19 -11 13 0 -17 52 -42 75 l-23 20 12 -22z"/>
<path d="M1461 1424 c-12 -15 -21 -32 -21 -39 0 -19 36 -47 57 -44 10 1 50 -1
88 -6 39 -5 74 -8 79 -7 4 2 14 -5 21 -15 11 -14 17 -15 38 -6 22 10 25 18 22
44 -2 17 -11 39 -20 49 -22 24 -119 50 -187 50 -49 0 -59 -3 -77 -26z m185
-36 c39 -18 28 -26 -28 -22 -66 5 -115 23 -96 36 15 10 90 1 124 -14z"/>
<path d="M1630 1248 c-25 -5 -67 -7 -93 -4 -41 4 -48 3 -45 -12 9 -44 120 -57
175 -19 53 36 37 51 -37 35z"/>
<path d="M229 1058 c-23 -44 4 -123 82 -240 73 -108 124 -147 245 -188 l90
-30 330 -8 329 -8 45 -27 c25 -14 61 -42 80 -62 22 -23 43 -35 61 -35 31 0 39
15 39 70 0 21 5 42 10 45 17 10 62 106 57 120 -9 21 -90 35 -201 35 -107 0
-127 -7 -81 -28 14 -6 25 -18 25 -27 0 -17 11 -20 26 -5 6 6 28 1 63 -15 29
-14 59 -25 67 -25 8 0 14 -5 14 -10 0 -20 -28 -21 -66 -5 -74 32 -94 35 -94
16 0 -17 -18 -41 -32 -41 -4 0 -6 17 -5 37 2 30 -2 39 -23 49 -13 7 -27 21
-31 32 -6 16 -25 20 -119 31 -152 16 -210 47 -210 111 0 34 30 70 88 102 39
22 50 33 40 39 -34 19 -263 68 -368 78 -63 6 -191 10 -283 9 -146 -3 -170 -5
-178 -20z m261 -87 c0 -52 -42 -69 -62 -25 -11 23 -10 29 10 45 29 23 52 14
52 -20z m335 -111 c66 -41 67 -108 3 -172 -32 -32 -44 -38 -81 -38 -34 0 -49
6 -69 28 -45 48 -61 92 -33 92 8 0 15 -5 15 -12 0 -6 11 -26 26 -45 35 -46 78
-46 123 1 42 44 44 81 6 114 -21 18 -37 23 -62 20 -31 -4 -43 8 -26 25 13 14
66 7 98 -13z m-135 -34 c0 -23 16 -34 78 -51 30 -9 22 -31 -9 -27 -65 7 -110
49 -95 88 9 23 26 16 26 -10z"/>
<path d="M810 395 c0 -28 -4 -35 -20 -35 -14 0 -20 -7 -20 -24 0 -15 7 -26 20
-29 15 -4 20 -14 20 -36 0 -24 -4 -31 -20 -31 -16 0 -20 -7 -20 -30 0 -23 4
-30 20 -30 16 0 20 -7 20 -35 0 -28 -4 -35 -20 -35 -21 0 -24 -8 -14 -34 9
-22 70 -21 84 2 10 16 10 16 20 0 15 -24 37 -22 88 7 l44 25 42 -25 c49 -29
71 -31 80 -9 10 27 7 32 -24 39 -43 10 -47 25 -6 25 29 0 36 4 36 20 0 17 -7
20 -50 20 -27 0 -50 5 -50 10 0 6 20 10 45 10 l45 0 0 65 c0 58 -2 65 -20 65
-31 0 -24 28 8 32 16 2 27 9 27 18 0 9 -11 16 -27 18 -16 2 -28 9 -28 18 0 19
-46 18 -54 -1 -3 -8 -15 -15 -26 -15 -11 0 -20 7 -20 15 0 10 -10 15 -30 15
-20 0 -30 -5 -30 -15 0 -9 -10 -15 -26 -15 -19 0 -25 -4 -22 -17 2 -10 9 -19
16 -19 6 -1 17 -2 22 -3 16 -2 11 -31 -5 -31 -10 0 -15 -11 -15 -35 0 -28 -4
-35 -20 -35 -13 0 -20 7 -20 20 0 11 7 20 15 20 10 0 15 10 15 30 0 20 -5 30
-15 30 -10 0 -15 11 -15 35 0 31 -3 35 -25 35 -22 0 -25 -4 -25 -35z m233 -48
c3 -8 -5 -14 -24 -15 -20 -2 -29 2 -29 13 0 19 46 21 53 2z m27 -57 c0 -5 -25
-10 -55 -10 -30 0 -55 5 -55 10 0 6 25 10 55 10 30 0 55 -4 55 -10z m0 -50 c0
-5 -25 -10 -55 -10 -30 0 -55 5 -55 10 0 6 25 10 55 10 30 0 55 -4 55 -10z
m-90 -49 c0 -6 -24 -11 -52 -13 -39 -2 -53 -7 -53 -18 0 -10 13 -17 40 -20 36
-5 38 -6 20 -17 -11 -6 -31 -13 -45 -14 -23 -4 -25 -1 -28 44 l-3 47 60 0 c34
0 61 -4 61 -9z"/>
<path d="M1250 421 c0 -5 -21 -32 -46 -60 l-47 -52 22 -23 c17 -18 21 -35 21
-84 l0 -62 145 0 145 0 0 95 0 95 -29 0 c-26 0 -28 3 -27 38 1 40 4 38 -82 41
-19 1 -31 5 -27 11 4 6 -10 10 -34 10 -23 0 -41 -4 -41 -9z m110 -70 c0 -12
-26 -21 -61 -21 -28 0 -37 9 -22 23 10 10 83 8 83 -2z m-56 -67 c26 -10 18
-24 -14 -24 -29 0 -38 9 -23 23 8 9 17 9 37 1z m126 -9 c0 -10 -10 -15 -30
-15 -29 0 -38 9 -23 23 13 13 53 7 53 -8z m-110 -74 c0 -16 -19 -23 -40 -16
-30 10 -24 25 10 25 17 0 30 -4 30 -9z m110 -7 c0 -11 -8 -14 -27 -12 -39 4
-42 28 -4 28 21 0 31 -5 31 -16z"/>
<path d="M1627 401 c-9 -16 -32 -43 -52 -59 l-34 -31 24 -19 c22 -18 25 -28
25 -86 l0 -66 145 0 145 0 0 95 0 95 -29 0 c-26 0 -28 3 -27 38 l1 37 -55 1
c-30 1 -56 7 -58 13 -2 6 -18 11 -36 11 -24 0 -36 -7 -49 -29z m113 -56 c-7
-9 -29 -15 -52 -15 -35 0 -39 2 -28 15 7 9 29 15 52 15 35 0 39 -2 28 -15z
m-32 -72 c2 -9 -7 -13 -27 -13 -21 0 -31 5 -31 16 0 19 51 16 58 -3z m112 2
c0 -10 -10 -15 -30 -15 -29 0 -38 9 -23 23 13 13 53 7 53 -8z m-112 -77 c-3
-7 -15 -13 -28 -13 -13 0 -25 6 -27 13 -3 8 6 12 27 12 21 0 30 -4 28 -12z
m112 3 c0 -16 -19 -23 -40 -16 -30 10 -24 25 10 25 17 0 30 -4 30 -9z"/>
<path d="M1160 90 c0 -19 7 -20 185 -20 178 0 185 1 185 20 0 19 -7 20 -185
20 -178 0 -185 -1 -185 -20z"/>
<path d="M1550 90 c0 -19 7 -20 185 -20 178 0 185 1 185 20 0 19 -7 20 -185
20 -178 0 -185 -1 -185 -20z"/>
</g>
</svg>
